HIERARCHY
ROOT Hips
{
 OFFSET 0.000000 0.000000 0.000000
 CHANNELS 6 Xposition Yposition Zposition Yrotation Xrotation Zrotation
 JOINT Chest
 {
  OFFSET 0.000000 9.857222 0.000240
  CHANNELS 3 Yrotation Xrotation Zrotation
  JOINT Chest2
  {
   OFFSET 0.000000 10.876940 -0.000436
   CHANNELS 3 Yrotation Xrotation Zrotation
   JOINT Chest3
   {
    OFFSET 0.000000 9.827798 0.000000
    CHANNELS 3 Yrotation Xrotation Zrotation
    JOINT Chest4
    {
     OFFSET 0.000000 9.827798 0.000000
     CHANNELS 3 Yrotation Xrotation Zrotation
     JOINT Neck
     {
      OFFSET 0.000000 13.831992 0.000000
      CHANNELS 3 Yrotation Xrotation Zrotation
      JOINT Head
      {
       OFFSET 0.000000 9.147643 -0.001036
       CHANNELS 3 Yrotation Xrotation Zrotation
       End Site
       {
        OFFSET 0.000000 17.515799 -0.000541
       }
      }
     }
     JOINT RightCollar
     {
      OFFSET -3.001579 7.717577 0.000000
      CHANNELS 3 Yrotation Xrotation Zrotation
      JOINT RightShoulder
      {
       OFFSET -14.002642 0.000000 0.000000
       CHANNELS 3 Yrotation Xrotation Zrotation
       JOINT RightElbow
       {
        OFFSET -30.053852 0.000000 0.000000
        CHANNELS 3 Yrotation Xrotation Zrotation
        JOINT RightWrist
        {
         OFFSET -24.564923 0.000000 -0.000000
         CHANNELS 3 Yrotation Xrotation Zrotation
         End Site
         {
          OFFSET -18.334355 0.000000 0.000000
         }
        }
       }
      }
     }
     JOINT LeftCollar
     {
      OFFSET 3.001579 7.717577 0.000000
      CHANNELS 3 Yrotation Xrotation Zrotation
      JOINT LeftShoulder
      {
       OFFSET 14.002642 0.000000 0.000000
       CHANNELS 3 Yrotation Xrotation Zrotation
       JOINT LeftElbow
       {
        OFFSET 30.053852 0.000000 0.000000
        CHANNELS 3 Yrotation Xrotation Zrotation
        JOINT LeftWrist
        {
         OFFSET 24.564923 0.000000 -0.000000
         CHANNELS 3 Yrotation Xrotation Zrotation
         End Site
         {
          OFFSET 18.334355 0.000000 0.000000
         }
        }
       }
      }
     }
    }
   }
  }
 }
 JOINT RightHip
 {
  OFFSET -8.003235 -0.001175 -0.000120
  CHANNELS 3 Yrotation Xrotation Zrotation
  JOINT RightKnee
  {
   OFFSET 0.000000 -41.759727 0.000113
   CHANNELS 3 Yrotation Xrotation Zrotation
   JOINT RightAnkle
   {
    OFFSET 0.000000 -40.728748 0.000159
    CHANNELS 3 Yrotation Xrotation Zrotation
    JOINT RightToe
    {
     OFFSET 0.000000 -6.515296 14.732841
     CHANNELS 3 Yrotation Xrotation Zrotation
     End Site
     {
      OFFSET 0.000000 -1.502839 6.412115
     }
    }
   }
  }
 }
 JOINT LeftHip
 {
  OFFSET 8.003235 -0.001175 -0.000120
  CHANNELS 3 Yrotation Xrotation Zrotation
  JOINT LeftKnee
  {
   OFFSET 0.000000 -41.759727 0.000113
   CHANNELS 3 Yrotation Xrotation Zrotation
   JOINT LeftAnkle
   {
    OFFSET 0.000000 -40.728748 0.000159
    CHANNELS 3 Yrotation Xrotation Zrotation
    JOINT LeftToe
    {
     OFFSET 0.000000 -6.515296 14.732841
     CHANNELS 3 Yrotation Xrotation Zrotation
     End Site
     {
      OFFSET 0.000000 -1.502839 6.412115
     }
    }
   }
  }
 }
}
MOTION
Frames: 6
Frame Time: 0.016667
22.759966 72.381124 7.867941 -28.651414 24.112115 -5.147621 -1.328306 11.619040 -0.125192 2.070365 0.541488 -1.214377 2.070365 0.541488 -1.214377 1.553846 0.402010 -0.912623 0.398368 8.644614 -0.100245 0.832858 -20.129671 -0.392881 7.543437 22.587234 8.181987 68.348471 7.284570 -36.464561 28.471678 -6.650226 -15.967919 3.802543 1.930234 -10.498961 -18.953414 25.234561 5.699373 -47.590964 -0.407204 37.663859 -31.002054 -15.804120 11.199554 15.815267 7.713939 17.023800 -89.275575 -60.991968 79.096819 -32.601719 67.937982 -52.368923 -13.459964 -14.509431 -0.274687 12.791662 0.820313 5.193106 -13.808073 -72.387163 0.958648 63.313489 61.229576 56.479480 18.145122 -23.395865 1.220860 -16.981136 -1.558361 -7.279145
22.417116 73.539668 8.509701 -28.631791 23.756204 -5.175484 -1.222715 11.149800 0.096284 2.045872 0.526756 -1.184403 2.045872 0.526756 -1.184403 1.535421 0.391109 -0.890071 0.301641 8.901792 -0.143581 0.661763 -19.652431 -0.428409 7.534374 22.710534 8.107484 68.689292 7.380888 -36.085932 27.990780 -6.084767 -15.539899 3.775212 1.975337 -10.443148 -18.884105 25.422174 5.338819 -47.752876 -0.467640 37.585278 -30.734069 -15.142176 10.737932 15.471754 7.614600 16.762354 -85.367708 -60.458328 74.784777 -29.694072 66.586783 -49.286380 -13.323152 -14.135006 0.027742 12.567784 0.622864 5.089582 -11.895423 -70.042203 -0.220252 59.098047 60.809833 51.971642 17.114241 -23.621954 1.438902 -16.185009 -1.380127 -6.924322
21.975286 74.685892 9.158647 -28.622651 23.101624 -5.205405 -1.101248 10.811814 0.300049 2.009240 0.535277 -1.141064 2.009240 0.535277 -1.141064 1.507925 0.397713 -0.857562 0.262362 9.180435 -0.202523 0.610942 -19.134801 -0.522562 7.731525 22.778918 8.112250 68.901970 7.543314 -35.679761 27.673781 -5.851862 -15.133934 3.722910 1.937136 -10.255769 -18.730898 25.694447 4.978029 -47.909708 -0.519938 37.459562 -30.394809 -14.177325 10.210682 15.192432 7.478509 16.492012 -80.989539 -59.633337 69.977901 -26.783658 65.246552 -46.230618 -13.230597 -13.914334 0.254194 12.359624 0.505436 5.009269 -10.177905 -67.381195 -1.144740 54.862971 60.294115 47.498570 16.236972 -23.786946 1.616172 -15.455617 -1.238106 -6.600223
21.409375 75.830710 9.785956 -28.583232 22.332846 -5.277603 -1.027275 10.439713 0.511919 1.979129 0.559646 -1.098753 1.979129 0.559646 -1.098753 1.485347 0.416183 -0.825881 0.275857 9.479950 -0.223704 0.644819 -18.578301 -0.567754 8.002500 22.786581 8.211257 69.148293 7.703312 -35.185592 27.479253 -5.839527 -14.819141 3.662200 1.881591 -10.023454 -18.452086 26.058648 4.708097 -48.182457 -0.586542 37.313275 -30.021472 -13.150797 9.637594 14.968536 7.310257 16.240819 -76.535236 -58.497737 65.129173 -23.954958 63.839802 -43.242778 -13.178973 -13.788021 0.413292 12.178466 0.433202 4.944526 -8.819258 -64.587057 -1.645805 50.643425 59.634705 43.132443 15.427516 -23.842426 1.736114 -14.774539 -1.140600 -6.295878
20.725963 76.976138 10.360118 -28.624105 21.674931 -5.376579 -0.878757 9.952646 0.677945 1.961844 0.578353 -1.073730 1.961844 0.578353 -1.073730 1.472392 0.430325 -0.807157 0.313003 9.763551 -0.169060 0.688983 -18.051773 -0.476193 8.115611 22.709973 8.351345 69.487594 7.933189 -34.601439 27.383408 -6.058710 -14.683182 3.580500 1.797891 -9.873383 -18.158447 26.366913 4.572040 -48.442836 -0.533464 37.087916 -29.736461 -12.403421 9.162078 14.799659 7.216544 15.964446 -72.329864 -57.182509 60.691876 -21.413692 62.215688 -40.469564 -12.912934 -13.709387 0.532986 11.873897 0.435325 4.831646 -7.863343 -61.927833 -1.577947 46.872169 58.764597 39.143317 14.390060 -23.759918 1.775487 -14.009926 -1.106369 -5.959721
19.975582 78.116573 10.891855 -28.880826 21.056258 -5.436194 -0.529387 9.392982 0.723260 1.951112 0.592858 -1.061228 1.951112 0.592858 -1.061228 1.464355 0.441262 -0.797816 0.358627 10.029436 -0.060123 0.724830 -17.558494 -0.283363 8.077629 22.588035 8.482632 69.840440 8.309071 -33.948623 27.309736 -6.400548 -14.790471 3.513303 1.646025 -9.720616 -17.852101 26.661068 4.509752 -48.670714 -0.316044 36.858030 -29.456806 -11.990974 8.784170 14.661164 7.156852 15.665788 -68.171491 -55.736261 56.522380 -19.182406 60.235000 -37.986786 -12.352487 -13.623674 0.654127 11.408799 0.562373 4.648964 -6.888158 -59.370188 -1.347300 43.527094 57.736090 35.480206 13.307343 -23.509286 1.778755 -13.249975 -1.190784 -5.624490
